<svg width="36" height="36" viewBox="0 0 36 36" fill="none" xmlns="http://www.w3.org/2000/svg">
<rect x="0.5" y="0.5" width="35" height="35" rx="17.5" stroke="#00AA13"/>
<path fill-rule="evenodd" clip-rule="evenodd" d="M17.5382 8.38674C12.5949 8.62076 8.57245 12.7442 8.30849 17.8452C8.09332 22.0338 10.3685 25.6981 13.7454 27.3984C15.0049 28.0323 16.4996 27.2355 16.7435 25.8107C16.9071 24.8509 16.4336 23.9 15.5873 23.4735C13.6679 22.5018 12.3797 20.4016 12.5317 18.0111C12.7096 15.2147 14.9016 12.9427 17.61 12.7501C20.8118 12.522 23.4801 15.1348 23.4801 18.3932C23.4801 20.6297 22.2234 22.5611 20.3987 23.4794C19.5667 23.9 19.1105 24.845 19.2712 25.7869L19.2798 25.8344C19.5179 27.2355 20.9869 28.0323 22.2263 27.4133C25.4683 25.7929 27.7062 22.3626 27.7062 18.3932C27.7033 12.7027 23.1071 8.12014 17.5382 8.38674Z" fill="#00AA13"/>
<path fill-rule="evenodd" clip-rule="evenodd" d="M18.0088 21.9242C16.1239 21.9242 14.5918 20.3424 14.5918 18.3962C14.5918 16.45 16.1239 14.8681 18.0088 14.8681C19.8938 14.8681 21.4259 16.45 21.4259 18.3962C21.4259 20.3424 19.8938 21.9242 18.0088 21.9242Z" fill="#00AA13"/>
</svg>
