<svg width="36" height="36" viewBox="0 0 36 36" fill="none" xmlns="http://www.w3.org/2000/svg">
<rect x="0.5" y="0.5" width="35" height="35" rx="17.5" stroke="#00AA13"/>
<path d="M9.29124 14.3535C9.29124 15.7851 10.2984 16.883 11.6003 16.883C12.8532 16.883 13.4836 16.0134 13.4836 15.056V14.7135H11.6576V15.2405H12.984C12.9922 15.7586 12.5501 16.3646 11.6003 16.3646C10.5523 16.3646 9.82353 15.5303 9.82353 14.3533C9.82353 13.2203 10.6095 12.3683 11.6905 12.3683C12.3947 12.3683 12.9515 12.5527 13.4673 12.9393L13.5 12.9129V12.4211C13.1151 12.1313 12.4601 11.8502 11.6741 11.8502C10.3393 11.8504 9.29124 12.957 9.29124 14.3535ZM8.52979 14.3535C8.52979 16.2506 9.83989 17.6646 11.6003 17.6646C13.2052 17.6646 14.1878 16.5843 14.1878 14.8365V13.9406H11.6576V14.45H13.7291V14.9243C13.7291 16.2945 12.935 17.1463 11.6001 17.1463C10.1345 17.1463 9.04554 15.943 9.04554 14.3533C9.04554 12.8075 10.1919 11.5866 11.6739 11.5866C12.3781 11.5866 13.0167 11.771 13.4998 12.1311V11.6129C13.0331 11.2529 12.419 11.0685 11.6739 11.0685C9.89713 11.0687 8.52979 12.5178 8.52979 14.3535ZM15.2277 14.8015V17.5153H15.7107V14.8102C15.7107 14.2042 16.0793 13.7738 16.6277 13.7738C16.7915 13.7738 16.9389 13.8176 17.0944 13.888C17.1599 13.7211 17.2255 13.5806 17.3072 13.4488C17.1353 13.3258 16.8814 13.2469 16.6357 13.2469C15.809 13.2469 15.2277 13.888 15.2277 14.8015ZM14.5153 17.5153H14.9983V14.8015C14.9983 13.7299 15.6698 13.001 16.6441 13.001C16.9716 13.001 17.3074 13.1153 17.4548 13.2118C17.5449 13.0975 17.6431 12.9745 17.7741 12.8605C17.4712 12.6322 17.0617 12.5005 16.6196 12.5005C15.334 12.5005 14.5153 13.4315 14.5153 14.8104V17.5153ZM22.0893 14.4765V15.2406C22.3759 14.8278 22.6216 14.4677 22.8508 14.1691C23.4321 13.405 23.9397 12.9833 24.7259 12.9833C25.7903 12.9833 26.5683 13.8439 26.5683 15.056C26.5683 16.2418 25.8068 17.1463 24.7588 17.1463C23.9072 17.1463 23.1703 16.5227 22.9984 15.6709L22.6545 16.1715C22.9248 17.0058 23.7189 17.6646 24.7506 17.6646C26.0771 17.6646 27.0515 16.5229 27.0515 15.056C27.0515 13.5718 26.0689 12.4562 24.7261 12.4562C23.3338 12.4564 22.6952 13.5718 22.0893 14.4765ZM23.5877 14.8629H23.5714L23.1946 15.4163C23.26 16.0486 23.8579 16.8917 24.7586 16.8917C25.6756 16.8917 26.3389 16.0925 26.3389 15.0473C26.3389 14.002 25.6593 13.2291 24.7259 13.2291C23.8171 13.2291 23.2929 13.9406 22.9246 14.4675C22.7445 14.7223 22.4333 15.135 22.0893 15.6533V16.4964C22.4086 15.987 22.8426 15.3898 23.1619 14.9769C23.7024 14.2831 24.0299 13.756 24.7177 13.756C25.3892 13.756 25.8477 14.3094 25.8477 15.0471C25.8477 15.8112 25.4137 16.3732 24.7588 16.3732C24.0709 16.3732 23.5879 15.697 23.5879 14.9416V14.8629H23.5877ZM23.1045 10.6119V12.7989C23.2519 12.6759 23.4156 12.5266 23.5875 12.4564V10.6119H23.1045ZM22.3841 13.5981C22.5315 13.3962 22.6952 13.1765 22.8671 12.9921V10.6119H22.3841V13.5981ZM20.4189 16.1013L20.4107 16.0925C20.206 16.2681 19.8702 16.3736 19.5509 16.3736C18.8959 16.3736 18.4045 15.8467 18.4045 15.065C18.4045 14.3184 18.8876 13.7476 19.5345 13.7476C20.2306 13.7476 20.6564 14.2921 20.6564 15.0211V17.5155H21.1394V14.9946C21.1394 13.9759 20.4761 13.2293 19.5427 13.2293C18.6175 13.2293 17.9051 13.9759 17.9051 15.065C17.9051 16.1453 18.6094 16.9182 19.5427 16.8919C19.8947 16.8832 20.2551 16.7426 20.4189 16.6196V16.1013ZM17.1764 15.056C17.1764 16.5843 18.1836 17.6646 19.5427 17.6646C19.8457 17.6646 20.1977 17.568 20.4189 17.3836V16.8654C20.2715 16.9972 19.9113 17.1465 19.5427 17.1465C18.4291 17.1465 17.6758 16.3034 17.6758 15.0562C17.6758 13.8705 18.4781 12.9835 19.5427 12.9835C20.5989 12.9835 21.3686 13.8178 21.3686 14.9861V17.5155H21.8598V14.9771C21.8598 13.5192 20.9017 12.4476 19.5425 12.4476C18.2081 12.4476 17.1764 13.5806 17.1764 15.056Z" fill="#58AE4E"/>
<path d="M9.47615 19.8763V21.819H11.8774V22.7683H9.47615V25.2561H8.51733V18.9268H12.1561V19.8761H9.47615V19.8763ZM17.213 22.8212C17.213 24.3596 16.2787 25.3881 14.9101 25.3881C13.5415 25.3881 12.599 24.3596 12.599 22.8212C12.599 21.2828 13.5415 20.2455 14.9101 20.2455C16.2787 20.2455 17.213 21.2828 17.213 22.8212ZM14.9101 21.2036C14.1234 21.2036 13.5415 21.8717 13.5415 22.8212C13.5415 23.7707 14.1234 24.43 14.9101 24.43C15.6968 24.43 16.2706 23.7707 16.2706 22.8212C16.2706 21.8717 15.6968 21.2036 14.9101 21.2036ZM22.352 22.8212C22.352 24.3596 21.4177 25.3881 20.0491 25.3881C18.6805 25.3881 17.738 24.3596 17.738 22.8212C17.738 21.2828 18.6805 20.2455 20.0491 20.2455C21.4179 20.2455 22.352 21.2828 22.352 22.8212ZM20.0493 21.2036C19.2626 21.2036 18.6807 21.8717 18.6807 22.8212C18.6807 23.7707 19.2626 24.43 20.0493 24.43C20.836 24.43 21.4097 23.7707 21.4097 22.8212C21.4097 21.8717 20.836 21.2036 20.0493 21.2036ZM25.1227 20.2455C25.7784 20.2455 26.3356 20.6498 26.4995 21.0894H26.5404V18.3993H27.4829V22.7771C27.4829 24.3682 26.5322 25.3879 25.1881 25.3879C23.844 25.3879 22.877 24.3945 22.877 22.8122C22.8772 21.2036 23.8442 20.2455 25.1227 20.2455ZM25.1883 24.4298C25.9668 24.4298 26.5406 23.7617 26.5406 22.742C26.5406 21.8102 25.9423 21.2036 25.1719 21.2036C24.4016 21.2036 23.8197 21.8015 23.8197 22.7771C23.8197 23.788 24.4098 24.4298 25.1883 24.4298Z" fill="#58AE4E"/>
</svg>
