<svg width="16" height="17" viewBox="0 0 16 17" fill="none" xmlns="http://www.w3.org/2000/svg">
<path d="M2 13.375C2 13.9961 2.57589 14.5 3.28571 14.5H12.7143C13.4241 14.5 14 13.9961 14 13.375V7H2V13.375ZM10.5714 8.78125C10.5714 8.62656 10.7161 8.5 10.8929 8.5H11.9643C12.1411 8.5 12.2857 8.62656 12.2857 8.78125V9.71875C12.2857 9.87344 12.1411 10 11.9643 10H10.8929C10.7161 10 10.5714 9.87344 10.5714 9.71875V8.78125ZM10.5714 11.7812C10.5714 11.6266 10.7161 11.5 10.8929 11.5H11.9643C12.1411 11.5 12.2857 11.6266 12.2857 11.7812V12.7188C12.2857 12.8734 12.1411 13 11.9643 13H10.8929C10.7161 13 10.5714 12.8734 10.5714 12.7188V11.7812ZM7.14286 8.78125C7.14286 8.62656 7.2875 8.5 7.46429 8.5H8.53571C8.7125 8.5 8.85714 8.62656 8.85714 8.78125V9.71875C8.85714 9.87344 8.7125 10 8.53571 10H7.46429C7.2875 10 7.14286 9.87344 7.14286 9.71875V8.78125ZM7.14286 11.7812C7.14286 11.6266 7.2875 11.5 7.46429 11.5H8.53571C8.7125 11.5 8.85714 11.6266 8.85714 11.7812V12.7188C8.85714 12.8734 8.7125 13 8.53571 13H7.46429C7.2875 13 7.14286 12.8734 7.14286 12.7188V11.7812ZM3.71429 8.78125C3.71429 8.62656 3.85893 8.5 4.03571 8.5H5.10714C5.28393 8.5 5.42857 8.62656 5.42857 8.78125V9.71875C5.42857 9.87344 5.28393 10 5.10714 10H4.03571C3.85893 10 3.71429 9.87344 3.71429 9.71875V8.78125ZM3.71429 11.7812C3.71429 11.6266 3.85893 11.5 4.03571 11.5H5.10714C5.28393 11.5 5.42857 11.6266 5.42857 11.7812V12.7188C5.42857 12.8734 5.28393 13 5.10714 13H4.03571C3.85893 13 3.71429 12.8734 3.71429 12.7188V11.7812ZM12.7143 4H11.4286V2.875C11.4286 2.66875 11.2357 2.5 11 2.5H10.1429C9.90714 2.5 9.71429 2.66875 9.71429 2.875V4H6.28571V2.875C6.28571 2.66875 6.09286 2.5 5.85714 2.5H5C4.76429 2.5 4.57143 2.66875 4.57143 2.875V4H3.28571C2.57589 4 2 4.50391 2 5.125V6.25H14V5.125C14 4.50391 13.4241 4 12.7143 4Z" fill="#ABABAB"/>
</svg>
