<svg width="36" height="36" viewBox="0 0 36 36" fill="none" xmlns="http://www.w3.org/2000/svg">
<rect width="36" height="36" rx="18" fill="#E75C3E"/>
<g clip-path="url(#clip0_85_297)">
<path fill-rule="evenodd" clip-rule="evenodd" d="M21.3255 22.5983C21.2047 23.6141 20.6008 24.4276 19.6654 24.835C19.1445 25.0619 18.4451 25.1844 17.8915 25.1459C17.0278 25.1123 16.2164 24.8982 15.4685 24.5069C15.2013 24.367 14.803 24.0877 14.4972 23.8261C14.4197 23.76 14.4105 23.7176 14.4618 23.6435C14.4894 23.601 14.5405 23.5243 14.6533 23.3558C14.8169 23.1115 14.8373 23.0809 14.8557 23.0523C14.908 22.9704 14.993 22.9632 15.0769 23.0305C15.0857 23.0375 15.0857 23.0375 15.0924 23.0428C15.1062 23.0537 15.1062 23.0537 15.1386 23.0794C15.1715 23.1055 15.191 23.1209 15.1988 23.1269C16.0054 23.7708 16.9449 24.1421 17.8932 24.1793C19.2127 24.1609 20.1616 23.5562 20.3316 22.6278C20.5185 21.6059 19.7315 20.7232 18.1917 20.2311C17.7101 20.0773 16.4928 19.5807 16.2684 19.4465C15.2144 18.8162 14.7216 17.9906 14.7916 16.9709C14.899 15.5573 16.1864 14.5031 17.8132 14.496C18.5407 14.4945 19.2667 14.6486 19.9641 14.9481C20.211 15.0542 20.6519 15.2988 20.8042 15.4146C20.8918 15.4802 20.9092 15.5567 20.8589 15.6392C20.8308 15.6871 20.7845 15.7629 20.6867 15.9211L20.6856 15.9228C20.5568 16.1311 20.5528 16.1376 20.5233 16.1863C20.4723 16.2655 20.4123 16.2729 20.3203 16.2134C19.574 15.7024 18.7467 15.4453 17.8368 15.4267C16.704 15.4496 15.855 16.1367 15.7992 17.0727C15.7843 17.9182 16.4065 18.5354 17.7503 19.006C20.4781 19.8994 21.5219 20.9468 21.3255 22.5983ZM17.9567 8.00371C19.7326 8.00371 21.1802 9.72145 21.2479 11.8717H14.6656C14.7333 9.72145 16.1809 8.00371 17.9567 8.00371ZM27.1477 12.276C27.1477 12.0527 26.9712 11.8717 26.7537 11.8717H22.4872C22.3825 9.03257 20.3942 6.76871 17.9567 6.76871C15.5193 6.76871 13.531 9.03257 13.4263 11.8717L9.1537 11.8718C8.93947 11.8757 8.76699 12.0552 8.76699 12.276C8.76699 12.2865 8.76738 12.297 8.76815 12.3073H8.76514L9.3742 25.9915C9.37427 26.0296 9.37567 26.068 9.37845 26.1066C9.37907 26.1154 9.37976 26.124 9.38046 26.1327L9.38177 26.1615L9.38324 26.163C9.47578 27.1153 10.1538 27.8822 11.0757 27.9176L11.0778 27.9197H24.6309C24.6374 27.9197 24.6438 27.9198 24.6502 27.9198C24.6566 27.9198 24.663 27.9197 24.6694 27.9197H24.6983L24.6989 27.9191C25.6369 27.893 26.3967 27.1153 26.477 26.1514L26.4774 26.1509L26.4781 26.138C26.4788 26.1278 26.4795 26.1177 26.4802 26.1076C26.4816 26.0833 26.4826 26.0591 26.483 26.0351L27.1476 12.2968H27.1471C27.1475 12.2899 27.1477 12.2829 27.1477 12.276Z" fill="white"/>
</g>
<defs>
<clipPath id="clip0_85_297">
<rect width="19.2" height="24" fill="white" transform="translate(8.3999 6)"/>
</clipPath>
</defs>
</svg>
