<svg width="36" height="36" viewBox="0 0 36 36" fill="none" xmlns="http://www.w3.org/2000/svg">
<mask id="mask0_181_37" style="mask-type:alpha" maskUnits="userSpaceOnUse" x="0" y="0" width="36" height="36">
<circle cx="18" cy="18" r="18" fill="#D9D9D9"/>
</mask>
<g mask="url(#mask0_181_37)">
<path fill-rule="evenodd" clip-rule="evenodd" d="M3.60001 0H32.4001C34.3884 0 36.0001 1.61165 36.0001 3.60001V32.4001C36.0001 34.3884 34.3884 36.0001 32.4001 36.0001H3.60001C1.61165 36.0001 0 34.3884 0 32.4001V3.60001C0 1.61165 1.61165 0 3.60001 0Z" fill="#010101"/>
<path fill-rule="evenodd" clip-rule="evenodd" d="M21.411 29.2001C22.2225 29.2001 22.8803 28.5476 22.8803 27.7428C22.8803 26.938 22.2225 26.2854 21.411 26.2854H21.1897C22.0011 26.2854 22.6589 26.938 22.6589 27.7428C22.6589 28.5476 22.0011 29.2001 21.1897 29.2001H21.411Z" fill="#EE1D51"/>
<path fill-rule="evenodd" clip-rule="evenodd" d="M21.1697 26.2854H20.9484C20.1369 26.2854 19.479 26.938 19.479 27.7428C19.479 28.5476 20.1369 29.2001 20.9484 29.2001H21.1697C20.3582 29.2001 19.7003 28.5476 19.7003 27.7428C19.7003 26.938 20.3582 26.2854 21.1697 26.2854Z" fill="#66C8CF"/>
<path d="M21.1799 28.4514C21.5745 28.4514 21.8945 28.1341 21.8945 27.7428C21.8945 27.3514 21.5745 27.0342 21.1799 27.0342C20.7853 27.0342 20.4653 27.3514 20.4653 27.7428C20.4653 28.1341 20.7853 28.4514 21.1799 28.4514Z" fill="#010101"/>
<path fill-rule="evenodd" clip-rule="evenodd" d="M9.99976 25.6267V26.3654H10.865V29.1802H11.7307V26.3854H12.435L12.6765 25.6267H9.99976ZM17.0841 25.6267V26.3654H17.9494V29.1802H18.815V26.3854H19.5193L19.7608 25.6267H17.0841ZM12.8377 26.0459C12.8377 25.8145 13.0266 25.6267 13.26 25.6267C13.4936 25.6267 13.6827 25.8145 13.6827 26.0459C13.6827 26.2774 13.4937 26.4652 13.26 26.4652C13.0266 26.465 12.8377 26.2774 12.8377 26.0459ZM12.8377 26.7647H13.6827V29.1802H12.8377V26.7647ZM14.045 25.6267V29.1802H14.8904V28.262L15.152 28.0222L15.9771 29.2001H16.8827L15.6952 27.4833L16.7619 26.4451H15.7355L14.8904 27.2835V25.6267H14.045ZM23.1619 25.6267V29.1802H24.0074V28.262L24.2689 28.0222L25.0942 29.2001H26L24.8124 27.4833L25.8791 26.4451H24.8527L24.0074 27.2835V25.6267H23.1619Z" fill="white"/>
<path fill-rule="evenodd" clip-rule="evenodd" d="M21.8579 13.3265C23.0252 14.1605 24.4554 14.6513 26 14.6513V11.6805C25.7076 11.6806 25.4161 11.6501 25.1301 11.5895V13.928C23.5857 13.928 22.1557 13.4372 20.988 12.6031V18.6656C20.988 21.6984 18.5282 24.1568 15.494 24.1568C14.362 24.1568 13.3097 23.8147 12.4355 23.228C13.4332 24.2475 14.8245 24.8801 16.3637 24.8801C19.3981 24.8801 21.858 22.4217 21.858 19.3888L21.8579 13.3265ZM22.9309 10.3293C22.3343 9.67787 21.9427 8.83594 21.8579 7.90516V7.52307H21.0335C21.241 8.70602 21.9487 9.7167 22.9309 10.3293ZM14.3546 20.9008C14.0213 20.464 13.8412 19.9296 13.842 19.3802C13.842 17.9931 14.9671 16.8685 16.3552 16.8685C16.6138 16.8683 16.871 16.908 17.1175 16.9861V13.949C16.8294 13.9095 16.5387 13.8928 16.248 13.8989V16.2629C16.0013 16.1848 15.7441 16.1451 15.4853 16.1453C14.0972 16.1453 12.9722 17.2699 12.9722 18.6571C12.9722 19.6379 13.5345 20.4872 14.3546 20.9008Z" fill="#EE1D52"/>
<path fill-rule="evenodd" clip-rule="evenodd" d="M20.9879 12.6031C22.1556 13.4372 23.5856 13.928 25.1301 13.928V11.5895C24.268 11.406 23.5048 10.9556 22.9309 10.3293C21.9487 9.7167 21.241 8.70602 21.0335 7.52307H18.8682V19.3887C18.8633 20.772 17.7401 21.892 16.355 21.892C15.5388 21.892 14.8137 21.5032 14.3545 20.9008C13.5344 20.4872 12.9721 19.6379 12.9721 18.6571C12.9721 17.2699 14.0971 16.1453 15.4852 16.1453C15.7511 16.1453 16.0074 16.1866 16.2478 16.2629V13.8989C13.267 13.9605 10.8696 16.3949 10.8696 19.3888C10.8696 20.8833 11.4666 22.2382 12.4355 23.2281C13.3097 23.8148 14.3619 24.1569 15.494 24.1569C18.5282 24.1569 20.9879 21.6984 20.9879 18.6657V12.6031Z" fill="white"/>
<path fill-rule="evenodd" clip-rule="evenodd" d="M25.13 11.5894V10.9571C24.3525 10.9582 23.5904 10.7406 22.9308 10.3291C23.5147 10.968 24.2835 11.4086 25.13 11.5894ZM21.0334 7.52298C21.0136 7.40994 20.9984 7.29614 20.9878 7.18186V6.79977H17.9981V18.6655C17.9933 20.0487 16.8702 21.1687 15.4851 21.1687C15.0783 21.1687 14.6944 21.0723 14.3544 20.9008C14.8136 21.5031 15.5387 21.8919 16.3549 21.8919C17.7399 21.8919 18.8632 20.7719 18.8681 19.3886V7.52298H21.0334ZM16.2478 13.8988V13.2257C15.998 13.1915 15.7462 13.1744 15.494 13.1746C12.4595 13.1746 9.99976 15.6331 9.99976 18.6655C9.99976 20.5668 10.9665 22.2423 12.4355 23.2279C11.4667 22.238 10.8696 20.8831 10.8696 19.3886C10.8696 16.3948 13.2669 13.9604 16.2478 13.8988Z" fill="#69C9D0"/>
<path fill-rule="evenodd" clip-rule="evenodd" d="M21.1895 29.2001C22.0009 29.2001 22.6588 28.5476 22.6588 27.7428C22.6588 26.938 22.0009 26.2854 21.1895 26.2854H21.1694C20.358 26.2854 19.7002 26.938 19.7002 27.7428C19.7002 28.5476 20.358 29.2001 21.1694 29.2001H21.1895ZM20.465 27.7428C20.465 27.3513 20.785 27.0342 21.1797 27.0342C21.574 27.0342 21.894 27.3513 21.894 27.7428C21.894 28.1343 21.574 28.4516 21.1797 28.4516C20.785 28.4515 20.465 28.1343 20.465 27.7428Z" fill="white"/>
</g>
</svg>
