<svg width="36" height="36" viewBox="0 0 36 36" fill="none" xmlns="http://www.w3.org/2000/svg">
<rect x="0.5" y="0.5" width="35" height="35" rx="17.5" stroke="#4A9E4B"/>
<g clip-path="url(#clip0_85_299)">
<path fill-rule="evenodd" clip-rule="evenodd" d="M18.0199 12.839C18.9124 12.3876 19.996 12.1411 20.986 12.0555L22.1003 11.9569C23.3198 11.8505 24.5406 11.9154 25.7614 11.9154H26.432V12.5925C26.432 15.6007 26.432 18.6089 26.432 21.6184V21.9634C26.432 25.0689 23.9212 27.6088 20.85 27.6088H9.6001V11.9154H10.2695C11.4928 11.9154 12.7085 11.835 13.9318 11.9296L15.0449 12.0153C16.1028 12.0957 17.071 12.3551 18.0199 12.839Z" fill="#4D4C4B"/>
<path fill-rule="evenodd" clip-rule="evenodd" d="M10.2695 12.5925V20.3237V21.6183V21.9634V26.9316H15.1809H15.9516H20.8501C23.552 26.9316 25.7614 24.6953 25.7614 21.9634V21.6183C25.7614 18.627 25.7614 15.7096 25.7614 12.5925C24.5881 12.5925 23.3481 12.564 22.1581 12.6314L21.0437 12.7287C19.9537 12.8636 18.8509 13.1205 18.0161 13.6082C17.1134 13.0815 16.1298 12.8195 14.9937 12.6898L13.8806 12.6042C12.6662 12.5471 11.4211 12.5925 10.2695 12.5925Z" fill="#5FB74E"/>
<path fill-rule="evenodd" clip-rule="evenodd" d="M11.6594 26.9316H15.1807H15.9514H20.8499C22.0476 26.9316 23.1466 26.4919 24.0006 25.7668C23.003 23.4227 20.6986 21.7818 18.016 21.7818C14.9063 21.7818 12.307 23.9844 11.6594 26.9316Z" fill="#89C45F"/>
<path fill-rule="evenodd" clip-rule="evenodd" d="M18.0161 26.9316L20.9078 26.8875C22.0888 26.8875 23.1634 26.4672 24.0008 25.7668C25.0792 24.8665 25.7614 23.5019 25.7614 21.9634V21.6184C25.7614 18.627 25.7614 15.7097 25.7614 12.5925C24.5881 12.5925 23.3481 12.564 22.1581 12.6314L21.0437 12.7287C19.9537 12.8636 18.8509 13.1205 18.0161 13.6082V26.9316Z" fill="#4A9E4B"/>
<path fill-rule="evenodd" clip-rule="evenodd" d="M18.0161 26.9316H20.868C22.0657 26.9316 23.1467 26.4932 24.0008 25.7668C23.0147 23.4487 20.6603 21.8181 18.0161 21.7818V26.9316Z" fill="#5FB74E"/>
<path fill-rule="evenodd" clip-rule="evenodd" d="M22.1581 12.1631C21.9452 10.0474 20.1782 8.39999 18.0341 8.39999C15.8888 8.39999 14.123 10.0332 13.8806 12.1359L14.9937 12.2228C15.1912 10.7038 16.4709 9.52985 18.029 9.52985C19.587 9.52985 20.8783 10.7233 21.0437 12.2591L22.1581 12.1631Z" fill="#4D4C4B"/>
<path fill-rule="evenodd" clip-rule="evenodd" d="M19.8268 22.4421C19.3421 22.9609 18.8574 23.4811 18.3726 24L18.0162 24.3827L17.6597 24C17.1737 23.4811 16.6889 22.9609 16.2042 22.4421L15.9529 22.1722L16.1363 21.8518C16.5261 21.1734 17.2532 20.8089 18.0162 20.8089C18.7779 20.8089 19.5049 21.1734 19.8948 21.8518L20.0782 22.1722L19.8268 22.4421Z" fill="#4D4C4B"/>
<path fill-rule="evenodd" clip-rule="evenodd" d="M19.4702 22.1022C18.9854 22.6211 18.5007 23.14 18.016 23.6601C17.5313 23.14 17.0453 22.6211 16.5605 22.1022C16.867 21.5678 17.4415 21.3032 18.016 21.3044C18.5892 21.3032 19.1637 21.5678 19.4702 22.1022Z" fill="#FDF8B4"/>
<path fill-rule="evenodd" clip-rule="evenodd" d="M19.4703 22.1022C18.9856 22.6211 18.5008 23.14 18.0161 23.6601V21.3044C18.5893 21.3032 19.1638 21.5678 19.4703 22.1022Z" fill="#FCD066"/>
<path fill-rule="evenodd" clip-rule="evenodd" d="M14.3807 14.5474C16.5543 14.5474 18.3162 16.331 18.3162 18.5284C18.3162 20.7259 16.5543 22.5095 14.3807 22.5095C12.2072 22.5095 10.4465 20.7259 10.4465 18.5284C10.4465 16.331 12.2072 14.5474 14.3807 14.5474Z" fill="#4D4C4B"/>
<path fill-rule="evenodd" clip-rule="evenodd" d="M14.3806 15.2245C16.1836 15.2245 17.6467 16.7046 17.6467 18.5285C17.6467 20.3523 16.1836 21.8311 14.3806 21.8311C12.5764 21.8311 11.1145 20.3523 11.1145 18.5285C11.1145 16.7046 12.5764 15.2245 14.3806 15.2245Z" fill="#EEEFEE"/>
<path fill-rule="evenodd" clip-rule="evenodd" d="M14.3807 15.2245C15.8695 15.2245 17.1249 16.2324 17.5186 17.61C17.1249 18.9877 15.8695 19.9956 14.3807 19.9956C12.8919 19.9956 11.6365 18.9877 11.2441 17.61C11.6365 16.2324 12.8919 15.2245 14.3807 15.2245Z" fill="#FEFEFE"/>
<path fill-rule="evenodd" clip-rule="evenodd" d="M21.6501 14.5474C23.8236 14.5474 25.5856 16.331 25.5856 18.5284C25.5856 20.7259 23.8236 22.5095 21.6501 22.5095C19.4778 22.5095 17.7146 20.7272 17.7146 18.5284C17.7146 16.331 19.4778 14.5474 21.6501 14.5474Z" fill="#4D4C4B"/>
<path fill-rule="evenodd" clip-rule="evenodd" d="M21.6503 15.2245C23.4546 15.2245 24.9164 16.7046 24.9164 18.5285C24.9164 20.3523 23.4546 21.8311 21.6503 21.8311C19.8474 21.8311 18.3855 20.3523 18.3855 18.5285C18.3855 16.7046 19.8474 15.2245 21.6503 15.2245Z" fill="#EEEFEE"/>
<path fill-rule="evenodd" clip-rule="evenodd" d="M21.6503 15.2245C23.1391 15.2245 24.3958 16.2324 24.7882 17.61C24.3958 18.9877 23.1391 19.9956 21.6503 19.9956C20.1615 19.9956 18.9061 18.9877 18.5125 17.61C18.9061 16.2324 20.1615 15.2245 21.6503 15.2245Z" fill="#FEFEFE"/>
<path fill-rule="evenodd" clip-rule="evenodd" d="M14.7911 16.4737C15.9554 16.4737 16.9005 17.4284 16.9005 18.6063C16.9005 19.7854 15.9554 20.7401 14.7911 20.7401C13.6254 20.7401 12.6816 19.7854 12.6816 18.6063C12.6816 18.2132 12.7881 17.8448 12.9702 17.5296C13.1215 17.9058 13.4857 18.1704 13.9127 18.1704C14.4731 18.1704 14.9283 17.7112 14.9283 17.143C14.9283 16.8875 14.8372 16.6553 14.6846 16.4763C14.7206 16.4737 14.7565 16.4737 14.7911 16.4737Z" fill="#4D4C4B"/>
<path fill-rule="evenodd" clip-rule="evenodd" d="M21.2398 16.4737C22.4055 16.4737 23.3493 17.4284 23.3493 18.6063C23.3493 19.7854 22.4055 20.7401 21.2398 20.7401C20.0755 20.7401 19.1304 19.7854 19.1304 18.6063C19.1304 18.2132 19.2355 17.8448 19.4189 17.5296C19.5702 17.9058 19.9357 18.1704 20.3614 18.1704C20.9231 18.1704 21.377 17.7112 21.377 17.143C21.377 16.8875 21.286 16.6553 21.1334 16.4763C21.1693 16.4737 21.2039 16.4737 21.2398 16.4737Z" fill="#4D4C4B"/>
</g>
<defs>
<clipPath id="clip0_85_299">
<rect width="16.8" height="19.2" fill="white" transform="translate(9.6001 8.39999)"/>
</clipPath>
</defs>
</svg>
