<svg width="36" height="36" viewBox="0 0 36 36" fill="none" xmlns="http://www.w3.org/2000/svg">
<rect width="36" height="36" rx="18" fill="#58AE4E"/>
<path d="M25.7049 10.1969C23.6473 8.13437 20.9071 7 17.9951 7C11.9844 7 7.0933 11.8911 7.0933 17.9018C7.0933 19.8219 7.5942 21.6978 8.54688 23.3527L7 29L12.7799 27.4826C14.371 28.3518 16.1634 28.8085 17.9902 28.8085H17.9951C24.0009 28.8085 29 23.9174 29 17.9067C29 14.9946 27.7625 12.2594 25.7049 10.1969ZM17.9951 26.9719C16.3647 26.9719 14.7687 26.5348 13.379 25.7098L13.05 25.5134L9.62232 26.4121L10.5357 23.0679L10.3196 22.7241C9.41116 21.2804 8.93482 19.6156 8.93482 17.9018C8.93482 12.9076 13.0009 8.84152 18 8.84152C20.421 8.84152 22.6946 9.78437 24.4036 11.4982C26.1125 13.2121 27.1634 15.4857 27.1585 17.9067C27.1585 22.9058 22.9893 26.9719 17.9951 26.9719ZM22.9647 20.1853C22.6946 20.0478 21.354 19.3897 21.1036 19.3013C20.8531 19.208 20.6714 19.1638 20.4897 19.4388C20.308 19.7138 19.7875 20.3228 19.6254 20.5094C19.4683 20.6911 19.3062 20.7156 19.0362 20.5781C17.4353 19.7777 16.3844 19.1491 15.3286 17.3371C15.0487 16.8558 15.6085 16.8902 16.129 15.8491C16.2174 15.6674 16.1732 15.5103 16.1045 15.3728C16.0357 15.2353 15.4906 13.8946 15.2647 13.3496C15.0437 12.8192 14.8179 12.8929 14.6509 12.883C14.4938 12.8732 14.3121 12.8732 14.1304 12.8732C13.9487 12.8732 13.654 12.942 13.4036 13.2121C13.1531 13.4871 12.4509 14.1451 12.4509 15.4857C12.4509 16.8263 13.4281 18.1228 13.5607 18.3045C13.6982 18.4862 15.4808 21.2362 18.2161 22.4196C19.9446 23.1661 20.6223 23.2299 21.4866 23.1022C22.0121 23.0237 23.0973 22.4442 23.3232 21.8058C23.5491 21.1674 23.5491 20.6223 23.4804 20.5094C23.4165 20.3866 23.2348 20.3179 22.9647 20.1853Z" fill="white"/>
</svg>
